<svg width="400" height="300" viewBox="0 0 400 300" xmlns="http://www.w3.org/2000/svg">
  <!-- Background -->
  <rect width="400" height="300" fill="#E8EDF1"/>
  
  <!-- Map with multiple locations -->
  <g>
    <!-- Map grid lines -->
    <g stroke="#C5D1DC" stroke-width="1">
      <line x1="0" y1="50" x2="400" y2="50"/>
      <line x1="0" y1="100" x2="400" y2="100"/>
      <line x1="0" y1="150" x2="400" y2="150"/>
      <line x1="0" y1="200" x2="400" y2="200"/>
      <line x1="0" y1="250" x2="400" y2="250"/>
      
      <line x1="50" y1="0" x2="50" y2="300"/>
      <line x1="100" y1="0" x2="100" y2="300"/>
      <line x1="150" y1="0" x2="150" y2="300"/>
      <line x1="200" y1="0" x2="200" y2="300"/>
      <line x1="250" y1="0" x2="250" y2="300"/>
      <line x1="300" y1="0" x2="300" y2="300"/>
      <line x1="350" y1="0" x2="350" y2="300"/>
    </g>
    
    <!-- Roads -->
    <g stroke="#A3B1C2" stroke-width="3">
      <path d="M50,150 L350,150" fill="none"/>
      <path d="M200,50 L200,250" fill="none"/>
      <path d="M50,50 L350,250" fill="none" stroke-dasharray="5,5"/>
    </g>
  </g>
  
  <!-- Location Pins -->
  <g>
    <!-- Pin 1 (Main) -->
    <g transform="translate(200, 150)">
      <path d="M0,0 C-12,-20 -12,-35 0,-35 C12,-35 12,-20 0,0 Z" fill="#4285F4"/>
      <circle cx="0" cy="-25" r="4" fill="white"/>
    </g>
    
    <!-- Pin 2 -->
    <g transform="translate(100, 100)">
      <path d="M0,0 C-8,-15 -8,-25 0,-25 C8,-25 8,-15 0,0 Z" fill="#EA4335"/>
      <circle cx="0" cy="-18" r="3" fill="white"/>
    </g>
    
    <!-- Pin 3 -->
    <g transform="translate(300, 200)">
      <path d="M0,0 C-8,-15 -8,-25 0,-25 C8,-25 8,-15 0,0 Z" fill="#FBBC05"/>
      <circle cx="0" cy="-18" r="3" fill="white"/>
    </g>
    
    <!-- Pin 4 -->
    <g transform="translate(250, 80)">
      <path d="M0,0 C-8,-15 -8,-25 0,-25 C8,-25 8,-15 0,0 Z" fill="#34A853"/>
      <circle cx="0" cy="-18" r="3" fill="white"/>
    </g>
  </g>
  
  <!-- Text -->
  <text x="200" y="275" text-anchor="middle" font-family="Arial" font-size="14" fill="#5F6B7A">Multiple Locations Map</text>
</svg>